<?xml version="1.0" encoding="UTF-8"?>
<svg xmlns="http://www.w3.org/2000/svg" xmlns:xlink="http://www.w3.org/1999/xlink" style="display:none">
  <symbol id="abc" viewBox="0 0 24 24" fill="none" stroke="currentColor" stroke-width="2" stroke-linecap="round" stroke-linejoin="round">
    <path d="M3 16v-6a2 2 0 1 1 4 0v6" />
    <path d="M3 13h4" />
    <path d="M10 8v6a2 2 0 1 0 4 0v-1a2 2 0 1 0 -4 0v1" />
    <path d="M20.732 12a2 2 0 0 0 -3.732 1v1a2 2 0 0 0 3.726 1.01" />
  </symbol>
  <symbol id="alert-circle" viewBox="0 0 24 24" fill="none" stroke="currentColor" stroke-width="2" stroke-linecap="round" stroke-linejoin="round">
    <path d="M3 12a9 9 0 1 0 18 0a9 9 0 0 0 -18 0" />
    <path d="M12 8v4" />
    <path d="M12 16h.01" />
  </symbol>
  <symbol id="arrow-right" viewBox="0 0 24 24" fill="none" stroke="currentColor" stroke-width="2" stroke-linecap="round" stroke-linejoin="round">
    <path d="M5 12l14 0" />
    <path d="M13 18l6 -6" />
    <path d="M13 6l6 6" />
  </symbol>
  <symbol id="arrows-maximize" viewBox="0 0 24 24" fill="none" stroke="currentColor" stroke-width="2" stroke-linecap="round" stroke-linejoin="round">
    <path d="M16 4l4 0l0 4" />
    <path d="M14 10l6 -6" />
    <path d="M8 20l-4 0l0 -4" />
    <path d="M4 20l6 -6" />
    <path d="M16 20l4 0l0 -4" />
    <path d="M14 14l6 6" />
    <path d="M8 4l-4 0l0 4" />
    <path d="M4 4l6 6" />
  </symbol>
  <symbol id="arrows-minimize" viewBox="0 0 24 24" fill="none" stroke="currentColor" stroke-width="2" stroke-linecap="round" stroke-linejoin="round">
    <path d="M5 9l4 0l0 -4" />
    <path d="M3 3l6 6" />
    <path d="M5 15l4 0l0 4" />
    <path d="M3 21l6 -6" />
    <path d="M19 9l-4 0l0 -4" />
    <path d="M15 9l6 -6" />
    <path d="M19 15l-4 0l0 4" />
    <path d="M15 15l6 6" />
  </symbol>
  <symbol id="background" viewBox="0 0 24 24" fill="none" stroke="currentColor" stroke-width="2" stroke-linecap="round" stroke-linejoin="round">
    <path d="M4 8l4 -4" />
    <path d="M14 4l-10 10" />
    <path d="M4 20l16 -16" />
    <path d="M20 10l-10 10" />
    <path d="M20 16l-4 4" />
  </symbol>
  <symbol id="bolt" viewBox="0 0 24 24" fill="none" stroke="currentColor" stroke-width="2" stroke-linecap="round" stroke-linejoin="round">
    <path d="M13 3l0 7l6 0l-8 11l0 -7l-6 0l8 -11" />
  </symbol>
  <symbol id="brand-whatsapp" viewBox="0 0 24 24" fill="none" stroke="currentColor" stroke-width="2" stroke-linecap="round" stroke-linejoin="round">
    <path d="M3 21l1.65 -3.8a9 9 0 1 1 3.4 2.9l-5.05 .9" />
    <path d="M9 10a.5 .5 0 0 0 1 0v-1a.5 .5 0 0 0 -1 0v1a5 5 0 0 0 5 5h1a.5 .5 0 0 0 0 -1h-1a.5 .5 0 0 0 0 1" />
  </symbol>
  <symbol id="brand-x" viewBox="0 0 24 24" fill="none" stroke="currentColor" stroke-width="2" stroke-linecap="round" stroke-linejoin="round">
    <path d="M4 4l11.733 16h4.267l-11.733 -16z" />
    <path d="M4 20l6.768 -6.768m2.46 -2.46l6.772 -6.772" />
  </symbol>
  <symbol id="building-bank" viewBox="0 0 24 24" fill="none" stroke="currentColor" stroke-width="2" stroke-linecap="round" stroke-linejoin="round">
    <path d="M3 21l18 0" />
    <path d="M3 10l18 0" />
    <path d="M5 6l7 -3l7 3" />
    <path d="M4 10l0 11" />
    <path d="M20 10l0 11" />
    <path d="M8 14l0 3" />
    <path d="M12 14l0 3" />
    <path d="M16 14l0 3" />
  </symbol>
  <symbol id="cake" viewBox="0 0 24 24" fill="none" stroke="currentColor" stroke-width="2" stroke-linecap="round" stroke-linejoin="round">
    <path d="M3 20h18v-8a3 3 0 0 0 -3 -3h-12a3 3 0 0 0 -3 3v8z" />
    <path d="M3 14.803c.312 .135 .654 .204 1 .197a2.4 2.4 0 0 0 2 -1a2.4 2.4 0 0 1 2 -1a2.4 2.4 0 0 1 2 1a2.4 2.4 0 0 0 2 1a2.4 2.4 0 0 0 2 -1a2.4 2.4 0 0 1 2 -1a2.4 2.4 0 0 1 2 1a2.4 2.4 0 0 0 2 1c.35 .007 .692 -.062 1 -.197" />
    <path d="M12 4l1.465 1.638a2 2 0 1 1 -3.015 .099l1.55 -1.737z" />
  </symbol>
  <symbol id="calculator" viewBox="0 0 24 24" fill="none" stroke="currentColor" stroke-width="2" stroke-linecap="round" stroke-linejoin="round">
    <path d="M4 3m0 2a2 2 0 0 1 2 -2h12a2 2 0 0 1 2 2v14a2 2 0 0 1 -2 2h-12a2 2 0 0 1 -2 -2z" />
    <path d="M8 7m0 1a1 1 0 0 1 1 -1h6a1 1 0 0 1 1 1v1a1 1 0 0 1 -1 1h-6a1 1 0 0 1 -1 -1z" />
    <path d="M8 14l0 .01" />
    <path d="M12 14l0 .01" />
    <path d="M16 14l0 .01" />
    <path d="M8 17l0 .01" />
    <path d="M12 17l0 .01" />
    <path d="M16 17l0 .01" />
  </symbol>
  <symbol id="cash" viewBox="0 0 24 24" fill="none" stroke="currentColor" stroke-width="2" stroke-linecap="round" stroke-linejoin="round">
    <path d="M7 9m0 2a2 2 0 0 1 2 -2h10a2 2 0 0 1 2 2v6a2 2 0 0 1 -2 2h-10a2 2 0 0 1 -2 -2z" />
    <path d="M14 14m-2 0a2 2 0 1 0 4 0a2 2 0 1 0 -4 0" />
    <path d="M17 9v-2a2 2 0 0 0 -2 -2h-10a2 2 0 0 0 -2 2v6a2 2 0 0 0 2 2h2" />
  </symbol>
  <symbol id="check" viewBox="0 0 24 24" fill="none" stroke="currentColor" stroke-width="2" stroke-linecap="round" stroke-linejoin="round">
    <path d="M5 12l5 5l10 -10" />
  </symbol>
  <symbol id="chevron-right" viewBox="0 0 24 24" fill="none" stroke="currentColor" stroke-width="2" stroke-linecap="round" stroke-linejoin="round">
    <path d="M9 6l6 6l-6 6" />
  </symbol>
  <symbol id="circle-check" viewBox="0 0 24 24" fill="none" stroke="currentColor" stroke-width="2" stroke-linecap="round" stroke-linejoin="round">
    <path d="M12 12m-9 0a9 9 0 1 0 18 0a9 9 0 1 0 -18 0" />
    <path d="M9 12l2 2l4 -4" />
  </symbol>
  <symbol id="circle-x" viewBox="0 0 24 24" fill="none" stroke="currentColor" stroke-width="2" stroke-linecap="round" stroke-linejoin="round">
    <path d="M12 12m-9 0a9 9 0 1 0 18 0a9 9 0 1 0 -18 0" />
    <path d="M10 10l4 4m0 -4l-4 4" />
  </symbol>
  <symbol id="clipboard" viewBox="0 0 24 24" fill="none" stroke="currentColor" stroke-width="2" stroke-linecap="round" stroke-linejoin="round">
    <path d="M9 5h-2a2 2 0 0 0 -2 2v12a2 2 0 0 0 2 2h10a2 2 0 0 0 2 -2v-12a2 2 0 0 0 -2 -2h-2" />
    <path d="M9 3m0 2a2 2 0 0 1 2 -2h2a2 2 0 0 1 2 2v0a2 2 0 0 1 -2 2h-2a2 2 0 0 1 -2 -2z" />
  </symbol>
  <symbol id="clock" viewBox="0 0 24 24" fill="none" stroke="currentColor" stroke-width="2" stroke-linecap="round" stroke-linejoin="round">
    <path d="M3 12a9 9 0 1 0 18 0a9 9 0 0 0 -18 0" />
    <path d="M12 7v5l3 3" />
  </symbol>
  <symbol id="coin" viewBox="0 0 24 24" fill="none" stroke="currentColor" stroke-width="2" stroke-linecap="round" stroke-linejoin="round">
    <path d="M12 12m-9 0a9 9 0 1 0 18 0a9 9 0 1 0 -18 0" />
    <path d="M14.8 9a2 2 0 0 0 -1.8 -1h-2a2 2 0 1 0 0 4h2a2 2 0 1 1 0 4h-2a2 2 0 0 1 -1.8 -1" />
    <path d="M12 7v10" />
  </symbol>
  <symbol id="currency-dollar" viewBox="0 0 24 24" fill="none" stroke="currentColor" stroke-width="2" stroke-linecap="round" stroke-linejoin="round">
    <path d="M16.7 8a3 3 0 0 0 -2.7 -2h-4a3 3 0 0 0 0 6h4a3 3 0 0 1 0 6h-4a3 3 0 0 1 -2.7 -2" />
    <path d="M12 3v3m0 12v3" />
  </symbol>
  <symbol id="cut" viewBox="0 0 24 24" fill="none" stroke="currentColor" stroke-width="2" stroke-linecap="round" stroke-linejoin="round">
    <path d="M7 17m-3 0a3 3 0 1 0 6 0a3 3 0 1 0 -6 0" />
    <path d="M17 17m-3 0a3 3 0 1 0 6 0a3 3 0 1 0 -6 0" />
    <path d="M9.15 14.85l8.85 -10.85" />
    <path d="M6 4l8.85 10.85" />
  </symbol>
  <symbol id="device-mobile" viewBox="0 0 24 24" fill="none" stroke="currentColor" stroke-width="2" stroke-linecap="round" stroke-linejoin="round">
    <path d="M6 5a2 2 0 0 1 2 -2h8a2 2 0 0 1 2 2v14a2 2 0 0 1 -2 2h-8a2 2 0 0 1 -2 -2v-14z" />
    <path d="M11 4h2" />
    <path d="M12 17v.01" />
  </symbol>
  <symbol id="download" viewBox="0 0 24 24" fill="none" stroke="currentColor" stroke-width="2" stroke-linecap="round" stroke-linejoin="round">
    <path d="M4 17v2a2 2 0 0 0 2 2h12a2 2 0 0 0 2 -2v-2" />
    <path d="M7 11l5 5l5 -5" />
    <path d="M12 4l0 12" />
  </symbol>
  <symbol id="eraser" viewBox="0 0 24 24" fill="none" stroke="currentColor" stroke-width="2" stroke-linecap="round" stroke-linejoin="round">
    <path d="M19 20h-10.5l-4.21 -4.3a1 1 0 0 1 0 -1.41l10 -10a1 1 0 0 1 1.41 0l5 5a1 1 0 0 1 0 1.41l-9.2 9.3" />
    <path d="M18 13.3l-6.3 -6.3" />
  </symbol>
  <symbol id="eye" viewBox="0 0 24 24" fill="none" stroke="currentColor" stroke-width="2" stroke-linecap="round" stroke-linejoin="round">
    <path d="M10 12a2 2 0 1 0 4 0a2 2 0 0 0 -4 0" />
    <path d="M21 12c-2.4 4 -5.4 6 -9 6c-3.6 0 -6.6 -2 -9 -6c2.4 -4 5.4 -6 9 -6c3.6 0 6.6 2 9 6" />
  </symbol>
  <symbol id="file-export" viewBox="0 0 24 24" fill="none" stroke="currentColor" stroke-width="2" stroke-linecap="round" stroke-linejoin="round">
    <path d="M14 3v4a1 1 0 0 0 1 1h4" />
    <path d="M11.5 21h-4.5a2 2 0 0 1 -2 -2v-14a2 2 0 0 1 2 -2h7l5 5v5m-5 6h7m-3 -3l3 3l-3 3" />
  </symbol>
  <symbol id="file-import" viewBox="0 0 24 24" fill="none" stroke="currentColor" stroke-width="2" stroke-linecap="round" stroke-linejoin="round">
    <path d="M14 3v4a1 1 0 0 0 1 1h4" />
    <path d="M5 13v-8a2 2 0 0 1 2 -2h7l5 5v11a2 2 0 0 1 -2 2h-5.5m-9.5 -2h7m-3 -3l3 3l-3 3" />
  </symbol>
  <symbol id="file-minus" viewBox="0 0 24 24" fill="none" stroke="currentColor" stroke-width="2" stroke-linecap="round" stroke-linejoin="round">
    <path d="M14 3v4a1 1 0 0 0 1 1h4" />
    <path d="M17 21h-10a2 2 0 0 1 -2 -2v-14a2 2 0 0 1 2 -2h7l5 5v11a2 2 0 0 1 -2 2z" />
    <path d="M9 14l6 0" />
  </symbol>
  <symbol id="file-pencil" viewBox="0 0 24 24" fill="none" stroke="currentColor" stroke-width="2" stroke-linecap="round" stroke-linejoin="round">
    <path d="M14 3v4a1 1 0 0 0 1 1h4" />
    <path d="M17 21h-10a2 2 0 0 1 -2 -2v-14a2 2 0 0 1 2 -2h7l5 5v11a2 2 0 0 1 -2 2z" />
    <path d="M10 18l5 -5a1.414 1.414 0 0 0 -2 -2l-5 5v2h2z" />
  </symbol>
  <symbol id="file-text" viewBox="0 0 24 24" fill="none" stroke="currentColor" stroke-width="2" stroke-linecap="round" stroke-linejoin="round">
    <path d="M14 3v4a1 1 0 0 0 1 1h4" />
    <path d="M17 21h-10a2 2 0 0 1 -2 -2v-14a2 2 0 0 1 2 -2h7l5 5v11a2 2 0 0 1 -2 2z" />
    <path d="M9 9l1 0" />
    <path d="M9 13l6 0" />
    <path d="M9 17l6 0" />
  </symbol>
  <symbol id="file-type-pdf" viewBox="0 0 24 24" fill="none" stroke="currentColor" stroke-width="2" stroke-linecap="round" stroke-linejoin="round">
    <path d="M14 3v4a1 1 0 0 0 1 1h4" />
    <path d="M5 12v-7a2 2 0 0 1 2 -2h7l5 5v4" />
    <path d="M5 18h1.5a1.5 1.5 0 0 0 0 -3h-1.5v6" />
    <path d="M17 18h2" />
    <path d="M20 15h-3v6" />
    <path d="M11 15v6h1a2 2 0 0 0 2 -2v-2a2 2 0 0 0 -2 -2h-1z" />
  </symbol>
  <symbol id="file-word" viewBox="0 0 24 24" fill="none" stroke="currentColor" stroke-width="2" stroke-linecap="round" stroke-linejoin="round">
    <path d="M14 3v4a1 1 0 0 0 1 1h4" />
    <path d="M17 21h-10a2 2 0 0 1 -2 -2v-14a2 2 0 0 1 2 -2h7l5 5v11a2 2 0 0 1 -2 2" />
    <path d="M9 12l1.333 5l1.667 -4l1.667 4l1.333 -5" />
  </symbol>
  <symbol id="file-zip" viewBox="0 0 24 24" fill="none" stroke="currentColor" stroke-width="2" stroke-linecap="round" stroke-linejoin="round">
    <path d="M6 20.735a2 2 0 0 1 -1 -1.735v-14a2 2 0 0 1 2 -2h7l5 5v11a2 2 0 0 1 -2 2h-1" />
    <path d="M11 17a2 2 0 0 1 2 2v2a1 1 0 0 1 -1 1h-2a1 1 0 0 1 -1 -1v-2a2 2 0 0 1 2 -2z" />
    <path d="M11 5l-1 0" />
    <path d="M13 7l-1 0" />
    <path d="M11 9l-1 0" />
    <path d="M13 11l-1 0" />
    <path d="M11 13l-1 0" />
    <path d="M13 15l-1 0" />
  </symbol>
  <symbol id="gas-station" viewBox="0 0 24 24" fill="none" stroke="currentColor" stroke-width="2" stroke-linecap="round" stroke-linejoin="round">
    <path d="M14 11h1a2 2 0 0 1 2 2v3a1.5 1.5 0 0 0 3 0v-7l-3 -3" />
    <path d="M4 20v-14a2 2 0 0 1 2 -2h6a2 2 0 0 1 2 2v14" />
    <path d="M3 20l12 0" />
    <path d="M18 7v1a1 1 0 0 0 1 1h1" />
    <path d="M4 11l10 0" />
  </symbol>
  <symbol id="home" viewBox="0 0 24 24" fill="none" stroke="currentColor" stroke-width="2" stroke-linecap="round" stroke-linejoin="round">
    <path d="M5 12l-2 0l9 -9l9 9l-2 0" />
    <path d="M5 12v7a2 2 0 0 0 2 2h10a2 2 0 0 0 2 -2v-7" />
    <path d="M9 21v-6a2 2 0 0 1 2 -2h2a2 2 0 0 1 2 2v6" />
  </symbol>
  <symbol id="id" viewBox="0 0 24 24" fill="none" stroke="currentColor" stroke-width="2" stroke-linecap="round" stroke-linejoin="round">
    <path d="M3 4m0 3a3 3 0 0 1 3 -3h12a3 3 0 0 1 3 3v10a3 3 0 0 1 -3 3h-12a3 3 0 0 1 -3 -3z" />
    <path d="M9 10m-2 0a2 2 0 1 0 4 0a2 2 0 1 0 -4 0" />
    <path d="M15 8l2 0" />
    <path d="M15 12l2 0" />
    <path d="M7 16l10 0" />
  </symbol>
  <symbol id="info-circle" viewBox="0 0 24 24" fill="none" stroke="currentColor" stroke-width="2" stroke-linecap="round" stroke-linejoin="round">
    <path d="M3 12a9 9 0 1 0 18 0a9 9 0 0 0 -18 0" />
    <path d="M12 9h.01" />
    <path d="M11 12h1v4h1" />
  </symbol>
  <symbol id="link" viewBox="0 0 24 24" fill="none" stroke="currentColor" stroke-width="2" stroke-linecap="round" stroke-linejoin="round">
    <path d="M9 15l6 -6" />
    <path d="M11 6l.463 -.536a5 5 0 0 1 7.071 7.072l-.534 .464" />
    <path d="M13 18l-.397 .534a5.068 5.068 0 0 1 -7.127 0a4.972 4.972 0 0 1 0 -7.071l.524 -.463" />
  </symbol>
  <symbol id="lock-access" viewBox="0 0 24 24" fill="none" stroke="currentColor" stroke-width="2" stroke-linecap="round" stroke-linejoin="round">
    <path d="M4 8v-2a2 2 0 0 1 2 -2h2" />
    <path d="M4 16v2a2 2 0 0 0 2 2h2" />
    <path d="M16 4h2a2 2 0 0 1 2 2v2" />
    <path d="M16 20h2a2 2 0 0 0 2 -2v-2" />
    <path d="M8 11m0 1a1 1 0 0 1 1 -1h6a1 1 0 0 1 1 1v3a1 1 0 0 1 -1 1h-6a1 1 0 0 1 -1 -1z" />
    <path d="M10 11v-2a2 2 0 1 1 4 0v2" />
  </symbol>
  <symbol id="lock-open" viewBox="0 0 24 24" fill="none" stroke="currentColor" stroke-width="2" stroke-linecap="round" stroke-linejoin="round">
    <path d="M5 11m0 2a2 2 0 0 1 2 -2h10a2 2 0 0 1 2 2v6a2 2 0 0 1 -2 2h-10a2 2 0 0 1 -2 -2z" />
    <path d="M12 16m-1 0a1 1 0 1 0 2 0a1 1 0 1 0 -2 0" />
    <path d="M8 11v-5a4 4 0 0 1 8 0" />
  </symbol>
  <symbol id="lock" viewBox="0 0 24 24" fill="none" stroke="currentColor" stroke-width="2" stroke-linecap="round" stroke-linejoin="round">
    <path d="M5 13a2 2 0 0 1 2 -2h10a2 2 0 0 1 2 2v6a2 2 0 0 1 -2 2h-10a2 2 0 0 1 -2 -2v-6z" />
    <path d="M11 16a1 1 0 1 0 2 0a1 1 0 0 0 -2 0" />
    <path d="M8 11v-4a4 4 0 1 1 8 0v4" />
  </symbol>
  <symbol id="menu-2" viewBox="0 0 24 24" fill="none" stroke="currentColor" stroke-width="2" stroke-linecap="round" stroke-linejoin="round">
    <path d="M4 6l16 0" />
    <path d="M4 12l16 0" />
    <path d="M4 18l16 0" />
  </symbol>
  <symbol id="moon" viewBox="0 0 24 24" fill="none" stroke="currentColor" stroke-width="2" stroke-linecap="round" stroke-linejoin="round">
    <path d="M12 3c.132 0 .263 0 .393 0a7.5 7.5 0 0 0 7.92 12.446a9 9 0 1 1 -8.313 -12.454z" />
  </symbol>
  <symbol id="movie" viewBox="0 0 24 24" fill="none" stroke="currentColor" stroke-width="2" stroke-linecap="round" stroke-linejoin="round">
    <path d="M4 4m0 2a2 2 0 0 1 2 -2h12a2 2 0 0 1 2 2v12a2 2 0 0 1 -2 2h-12a2 2 0 0 1 -2 -2z" />
    <path d="M8 4l0 16" />
    <path d="M16 4l0 16" />
    <path d="M4 8l4 0" />
    <path d="M4 16l4 0" />
    <path d="M4 12l16 0" />
    <path d="M16 8l4 0" />
    <path d="M16 16l4 0" />
  </symbol>
  <symbol id="music" viewBox="0 0 24 24" fill="none" stroke="currentColor" stroke-width="2" stroke-linecap="round" stroke-linejoin="round">
    <path d="M3 17a3 3 0 1 0 6 0a3 3 0 0 0 -6 0" />
    <path d="M13 17a3 3 0 1 0 6 0a3 3 0 0 0 -6 0" />
    <path d="M9 17v-13h10v13" />
    <path d="M9 8h10" />
  </symbol>
  <symbol id="photo-down" viewBox="0 0 24 24" fill="none" stroke="currentColor" stroke-width="2" stroke-linecap="round" stroke-linejoin="round">
    <path d="M15 8h.01" />
    <path d="M12.5 21h-6.5a3 3 0 0 1 -3 -3v-12a3 3 0 0 1 3 -3h12a3 3 0 0 1 3 3v6.5" />
    <path d="M3 16l5 -5c.928 -.893 2.072 -.893 3 0l4 4" />
    <path d="M14 14l1 -1c.653 -.629 1.413 -.815 2.13 -.559" />
    <path d="M19 16v6" />
    <path d="M22 19l-3 3l-3 -3" />
  </symbol>
  <symbol id="photo-up" viewBox="0 0 24 24" fill="none" stroke="currentColor" stroke-width="2" stroke-linecap="round" stroke-linejoin="round">
    <path d="M15 8h.01" />
    <path d="M12.5 21h-6.5a3 3 0 0 1 -3 -3v-12a3 3 0 0 1 3 -3h12a3 3 0 0 1 3 3v6.5" />
    <path d="M3 16l5 -5c.928 -.893 2.072 -.893 3 0l3.5 3.5" />
    <path d="M14 14l1 -1c.679 -.653 1.473 -.829 2.214 -.526" />
    <path d="M19 22v-6" />
    <path d="M22 19l-3 -3l-3 3" />
  </symbol>
  <symbol id="photo" viewBox="0 0 24 24" fill="none" stroke="currentColor" stroke-width="2" stroke-linecap="round" stroke-linejoin="round">
    <path d="M15 8h.01" />
    <path d="M3 6a3 3 0 0 1 3 -3h12a3 3 0 0 1 3 3v12a3 3 0 0 1 -3 3h-12a3 3 0 0 1 -3 -3v-12z" />
    <path d="M3 16l5 -5c.928 -.893 2.072 -.893 3 0l5 5" />
    <path d="M14 14l1 -1c.928 -.893 2.072 -.893 3 0l3 3" />
  </symbol>
  <symbol id="plus" viewBox="0 0 24 24" fill="none" stroke="currentColor" stroke-width="2" stroke-linecap="round" stroke-linejoin="round">
    <path d="M12 5l0 14" />
    <path d="M5 12l14 0" />
  </symbol>
  <symbol id="puzzle" viewBox="0 0 24 24" fill="none" stroke="currentColor" stroke-width="2" stroke-linecap="round" stroke-linejoin="round">
    <path d="M4 7h3a1 1 0 0 0 1 -1v-1a2 2 0 0 1 4 0v1a1 1 0 0 0 1 1h3a1 1 0 0 1 1 1v3a1 1 0 0 0 1 1h1a2 2 0 0 1 0 4h-1a1 1 0 0 0 -1 1v3a1 1 0 0 1 -1 1h-3a1 1 0 0 1 -1 -1v-1a2 2 0 0 0 -4 0v1a1 1 0 0 1 -1 1h-3a1 1 0 0 1 -1 -1v-3a1 1 0 0 1 1 -1h1a2 2 0 0 0 0 -4h-1a1 1 0 0 1 -1 -1v-3a1 1 0 0 1 1 -1" />
  </symbol>
  <symbol id="qrcode" viewBox="0 0 24 24" fill="none" stroke="currentColor" stroke-width="2" stroke-linecap="round" stroke-linejoin="round">
    <path d="M4 4m0 1a1 1 0 0 1 1 -1h4a1 1 0 0 1 1 1v4a1 1 0 0 1 -1 1h-4a1 1 0 0 1 -1 -1z" />
    <path d="M7 17l0 .01" />
    <path d="M14 4m0 1a1 1 0 0 1 1 -1h4a1 1 0 0 1 1 1v4a1 1 0 0 1 -1 1h-4a1 1 0 0 1 -1 -1z" />
    <path d="M7 7l0 .01" />
    <path d="M4 14m0 1a1 1 0 0 1 1 -1h4a1 1 0 0 1 1 1v4a1 1 0 0 1 -1 1h-4a1 1 0 0 1 -1 -1z" />
    <path d="M17 7l0 .01" />
    <path d="M14 14l3 0" />
    <path d="M20 14l0 .01" />
    <path d="M14 14l0 3" />
    <path d="M14 20l3 0" />
    <path d="M17 17l3 0" />
    <path d="M20 17l0 3" />
  </symbol>
  <symbol id="receipt" viewBox="0 0 24 24" fill="none" stroke="currentColor" stroke-width="2" stroke-linecap="round" stroke-linejoin="round">
    <path d="M5 21v-16a2 2 0 0 1 2 -2h10a2 2 0 0 1 2 2v16l-3 -2l-2 2l-2 -2l-2 2l-2 -2l-3 2m4 -14h6m-6 4h6m-2 4h2" />
  </symbol>
  <symbol id="refresh" viewBox="0 0 24 24" fill="none" stroke="currentColor" stroke-width="2" stroke-linecap="round" stroke-linejoin="round">
    <path d="M20 11a8.1 8.1 0 0 0 -15.5 -2m-.5 -4v4h4" />
    <path d="M4 13a8.1 8.1 0 0 0 15.5 2m.5 4v-4h-4" />
  </symbol>
  <symbol id="ruler-2" viewBox="0 0 24 24" fill="none" stroke="currentColor" stroke-width="2" stroke-linecap="round" stroke-linejoin="round">
    <path d="M17 3l4 4l-14 14l-4 -4z" />
    <path d="M16 7l-1.5 -1.5" />
    <path d="M13 10l-1.5 -1.5" />
    <path d="M10 13l-1.5 -1.5" />
    <path d="M7 16l-1.5 -1.5" />
  </symbol>
  <symbol id="scale" viewBox="0 0 24 24" fill="none" stroke="currentColor" stroke-width="2" stroke-linecap="round" stroke-linejoin="round">
    <path d="M7 20l10 0" />
    <path d="M6 6l6 -1l6 1" />
    <path d="M12 3l0 17" />
    <path d="M9 12l-3 -6l-3 6a3 3 0 0 0 6 0" />
    <path d="M21 12l-3 -6l-3 6a3 3 0 0 0 6 0" />
  </symbol>
  <symbol id="scissors" viewBox="0 0 24 24" fill="none" stroke="currentColor" stroke-width="2" stroke-linecap="round" stroke-linejoin="round">
    <path d="M6 7m-3 0a3 3 0 1 0 6 0a3 3 0 1 0 -6 0" />
    <path d="M6 17m-3 0a3 3 0 1 0 6 0a3 3 0 1 0 -6 0" />
    <path d="M8.6 8.6l10.4 10.4" />
    <path d="M8.6 15.4l10.4 -10.4" />
  </symbol>
  <symbol id="search" viewBox="0 0 24 24" fill="none" stroke="currentColor" stroke-width="2" stroke-linecap="round" stroke-linejoin="round">
    <path d="M10 10m-7 0a7 7 0 1 0 14 0a7 7 0 1 0 -14 0" />
    <path d="M21 21l-6 -6" />
  </symbol>
  <symbol id="settings" viewBox="0 0 24 24" fill="none" stroke="currentColor" stroke-width="2" stroke-linecap="round" stroke-linejoin="round">
    <path d="M10.325 4.317c.426 -1.756 2.924 -1.756 3.35 0a1.724 1.724 0 0 0 2.573 1.066c1.543 -.94 3.31 .826 2.37 2.37a1.724 1.724 0 0 0 1.065 2.572c1.756 .426 1.756 2.924 0 3.35a1.724 1.724 0 0 0 -1.066 2.573c.94 1.543 -.826 3.31 -2.37 2.37a1.724 1.724 0 0 0 -2.572 1.065c-.426 1.756 -2.924 1.756 -3.35 0a1.724 1.724 0 0 0 -2.573 -1.066c-1.543 .94 -3.31 -.826 -2.37 -2.37a1.724 1.724 0 0 0 -1.065 -2.572c-1.756 -.426 -1.756 -2.924 0 -3.35a1.724 1.724 0 0 0 1.066 -2.573c-.94 -1.543 .826 -3.31 2.37 -2.37c1 .608 2.296 .07 2.572 -1.065z" />
    <path d="M9 12a3 3 0 1 0 6 0a3 3 0 0 0 -6 0" />
  </symbol>
  <symbol id="shield-lock" viewBox="0 0 24 24" fill="none" stroke="currentColor" stroke-width="2" stroke-linecap="round" stroke-linejoin="round">
    <path d="M12 3a12 12 0 0 0 8.5 3a12 12 0 0 1 -8.5 15a12 12 0 0 1 -8.5 -15a12 12 0 0 0 8.5 -3" />
    <path d="M12 11m-1 0a1 1 0 1 0 2 0a1 1 0 1 0 -2 0" />
    <path d="M12 12l0 2.5" />
  </symbol>
  <symbol id="signature" viewBox="0 0 24 24" fill="none" stroke="currentColor" stroke-width="2" stroke-linecap="round" stroke-linejoin="round">
    <path d="M3 17c3.333 -3.333 5 -6 5 -8c0 -3 -1 -3 -2 -3s-2.032 1.085 -2 3c.034 2.048 1.658 4.877 2.5 6c1.5 2 2.5 2.5 3.5 1l2 -3c.333 2.667 1.333 4 3 4c.53 0 2.639 -2 3 -2c.517 0 1.517 .667 3 2" />
  </symbol>
  <symbol id="sparkles" viewBox="0 0 24 24" fill="none" stroke="currentColor" stroke-width="2" stroke-linecap="round" stroke-linejoin="round">
    <path d="M16 18a2 2 0 0 1 2 2a2 2 0 0 1 2 -2a2 2 0 0 1 -2 -2a2 2 0 0 1 -2 2zm0 -12a2 2 0 0 1 2 2a2 2 0 0 1 2 -2a2 2 0 0 1 -2 -2a2 2 0 0 1 -2 2zm-7 12a6 6 0 0 1 6 -6a6 6 0 0 1 -6 -6a6 6 0 0 1 -6 6a6 6 0 0 1 6 6z" />
  </symbol>
  <symbol id="sun" viewBox="0 0 24 24" fill="none" stroke="currentColor" stroke-width="2" stroke-linecap="round" stroke-linejoin="round">
    <path d="M12 12m-4 0a4 4 0 1 0 8 0a4 4 0 1 0 -8 0" />
    <path d="M3 12h1m8 -9v1m8 8h1m-9 8v1m-6.4 -15.4l.7 .7m12.1 -.7l-.7 .7m0 11.4l.7 .7m-12.1 -.7l-.7 .7" />
  </symbol>
  <symbol id="square" viewBox="0 0 24 24" fill="none" stroke="currentColor" stroke-width="2" stroke-linecap="round" stroke-linejoin="round">
    <path d="M3 3m0 2a2 2 0 0 1 2 -2h14a2 2 0 0 1 2 2v14a2 2 0 0 1 -2 2h-14a2 2 0 0 1 -2 -2z" />
  </symbol>
  <symbol id="star" viewBox="0 0 24 24" fill="none" stroke="currentColor" stroke-width="2" stroke-linecap="round" stroke-linejoin="round">
    <path d="M12 17.75l-6.172 3.245l1.179 -6.873l-5 -4.867l6.9 -1.002l3.086 -6.253l3.086 6.253l6.9 1.002l-5 4.867l1.179 6.873z" />
  </symbol>
  <symbol id="stack-2" viewBox="0 0 24 24" fill="none" stroke="currentColor" stroke-width="2" stroke-linecap="round" stroke-linejoin="round">
    <path d="M12 4l-8 4l8 4l8 -4l-8 -4" />
    <path d="M4 12l8 4l8 -4" />
    <path d="M4 16l8 4l8 -4" />
  </symbol>
  <symbol id="sticker-2" viewBox="0 0 24 24" fill="none" stroke="currentColor" stroke-width="2" stroke-linecap="round" stroke-linejoin="round">
    <path d="M6 4h12a2 2 0 0 1 2 2v7h-5a2 2 0 0 0 -2 2v5h-7a2 2 0 0 1 -2 -2v-12a2 2 0 0 1 2 -2z" />
    <path d="M20 13v.172a2 2 0 0 1 -.586 1.414l-4.828 4.828a2 2 0 0 1 -1.414 .586h-.172" />
  </symbol>
  <symbol id="text-size" viewBox="0 0 24 24" fill="none" stroke="currentColor" stroke-width="2" stroke-linecap="round" stroke-linejoin="round">
    <path d="M3 7v-2h13v2" />
    <path d="M10 5v14" />
    <path d="M12 19h-4" />
    <path d="M15 13v-1h6v1" />
    <path d="M18 12v7" />
    <path d="M17 19h2" />
  </symbol>
  <symbol id="tool" viewBox="0 0 24 24" fill="none" stroke="currentColor" stroke-width="2" stroke-linecap="round" stroke-linejoin="round">
    <path d="M7 10h3v-3l-3.5 -3.5a6 6 0 0 1 8 8l6 6a2 2 0 0 1 -3 3l-6 -6a6 6 0 0 1 -8 -8l3.5 3.5" />
  </symbol>
  <symbol id="transform" viewBox="0 0 24 24" fill="none" stroke="currentColor" stroke-width="2" stroke-linecap="round" stroke-linejoin="round">
    <path d="M3 6a3 3 0 1 0 6 0a3 3 0 0 0 -6 0" />
    <path d="M21 11v-3a2 2 0 0 0 -2 -2h-6l3 3m0 -6l-3 3" />
    <path d="M3 13v3a2 2 0 0 0 2 2h6l-3 -3m0 6l3 -3" />
    <path d="M15 18a3 3 0 1 0 6 0a3 3 0 0 0 -6 0" />
  </symbol>
  <symbol id="trash" viewBox="0 0 24 24" fill="none" stroke="currentColor" stroke-width="2" stroke-linecap="round" stroke-linejoin="round">
    <path d="M4 7l16 0" />
    <path d="M10 11l0 6" />
    <path d="M14 11l0 6" />
    <path d="M5 7l1 12a2 2 0 0 0 2 2h8a2 2 0 0 0 2 -2l1 -12" />
    <path d="M9 7v-3a1 1 0 0 1 1 -1h4a1 1 0 0 1 1 1v3" />
  </symbol>
  <symbol id="upload" viewBox="0 0 24 24" fill="none" stroke="currentColor" stroke-width="2" stroke-linecap="round" stroke-linejoin="round">
    <path d="M4 17v2a2 2 0 0 0 2 2h12a2 2 0 0 0 2 -2v-2" />
    <path d="M7 9l5 -5l5 5" />
    <path d="M12 4l0 12" />
  </symbol>
  <symbol id="video" viewBox="0 0 24 24" fill="none" stroke="currentColor" stroke-width="2" stroke-linecap="round" stroke-linejoin="round">
    <path d="M15 10l4.553 -2.276a1 1 0 0 1 1.447 .894v6.764a1 1 0 0 1 -1.447 .894l-4.553 -2.276v-4z" />
    <path d="M3 6m0 2a2 2 0 0 1 2 -2h8a2 2 0 0 1 2 2v8a2 2 0 0 1 -2 2h-8a2 2 0 0 1 -2 -2z" />
  </symbol>
  <symbol id="wand" viewBox="0 0 24 24" fill="none" stroke="currentColor" stroke-width="2" stroke-linecap="round" stroke-linejoin="round">
    <path d="M6 21l15 -15l-3 -3l-15 15l3 3" />
    <path d="M15 6l3 3" />
    <path d="M9 3a2 2 0 0 0 2 2a2 2 0 0 0 -2 2a2 2 0 0 0 -2 -2a2 2 0 0 0 2 -2" />
    <path d="M19 13a2 2 0 0 0 2 2a2 2 0 0 0 -2 2a2 2 0 0 0 -2 -2a2 2 0 0 0 2 -2" />
  </symbol>
  <symbol id="world" viewBox="0 0 24 24" fill="none" stroke="currentColor" stroke-width="2" stroke-linecap="round" stroke-linejoin="round">
    <path d="M3 12a9 9 0 1 0 18 0a9 9 0 0 0 -18 0" />
    <path d="M3.6 9h16.8" />
    <path d="M3.6 15h16.8" />
    <path d="M11.5 3a17 17 0 0 0 0 18" />
    <path d="M12.5 3a17 17 0 0 1 0 18" />
  </symbol>
  <symbol id="x" viewBox="0 0 24 24" fill="none" stroke="currentColor" stroke-width="2" stroke-linecap="round" stroke-linejoin="round">
    <path d="M18 6l-12 12" />
    <path d="M6 6l12 12" />
  </symbol>
  <symbol id="zoom-in" viewBox="0 0 24 24" fill="none" stroke="currentColor" stroke-width="2" stroke-linecap="round" stroke-linejoin="round">
    <path d="M10 10m-7 0a7 7 0 1 0 14 0a7 7 0 1 0 -14 0" />
    <path d="M7 10l6 0" />
    <path d="M10 7l0 6" />
    <path d="M21 21l-6 -6" />
  </symbol>
</svg>
